<svg viewBox="0 0 53.0765 43" xmlns="http://www.w3.org/2000/svg" xmlns:xlink="http://www.w3.org/1999/xlink" width="53.076538" height="43.000000" fill="none" customFrame="#000000">
	<path id="$200.99 Total" d="M3.367 4.8835L3.367 6.8335L4.329 6.8335L4.329 4.8835L3.367 4.8835ZM3.367 14.8935L3.367 16.9735L4.329 16.9735L4.329 14.8935L3.367 14.8935ZM5.72 8.8355L6.617 8.2375C6.49567 7.9255 6.305 7.62217 6.045 7.3275C5.79367 7.02417 5.48167 6.77717 5.109 6.5865C4.73633 6.38717 4.303 6.2875 3.809 6.2875C3.315 6.2875 2.86867 6.38717 2.47 6.5865C2.07133 6.77717 1.755 7.0415 1.521 7.3795C1.287 7.70883 1.17 8.0815 1.17 8.4975C1.17 8.9135 1.24367 9.26883 1.391 9.5635C1.547 9.85817 1.742 10.1095 1.976 10.3175C2.21 10.5168 2.457 10.6815 2.717 10.8115C2.98567 10.9415 3.23267 11.0455 3.458 11.1235C3.80467 11.2448 4.13833 11.3878 4.459 11.5525C4.78833 11.7172 5.057 11.9252 5.265 12.1765C5.48167 12.4278 5.59 12.7485 5.59 13.1385C5.59 13.4418 5.52933 13.7062 5.408 13.9315C5.29533 14.1482 5.122 14.3172 4.888 14.4385C4.66267 14.5512 4.37667 14.6075 4.03 14.6075C3.65733 14.6075 3.32367 14.5252 3.029 14.3605C2.743 14.1958 2.48733 13.9618 2.262 13.6585C2.03667 13.3552 1.833 12.9955 1.651 12.5795L0.715 13.1385C0.905667 13.6412 1.157 14.0788 1.469 14.4515C1.78967 14.8242 2.16233 15.1188 2.587 15.3355C3.01167 15.5435 3.471 15.6475 3.965 15.6475C4.57167 15.6475 5.07867 15.5392 5.486 15.3225C5.89333 15.1058 6.201 14.8025 6.409 14.4125C6.62567 14.0138 6.734 13.5588 6.734 13.0475C6.734 12.6315 6.66033 12.2762 6.513 11.9815C6.36567 11.6782 6.175 11.4268 5.941 11.2275C5.707 11.0195 5.45567 10.8462 5.187 10.7075C4.91833 10.5688 4.667 10.4562 4.433 10.3695C4.069 10.2308 3.72667 10.0878 3.406 9.9405C3.08533 9.7845 2.82533 9.6025 2.626 9.3945C2.42667 9.17783 2.327 8.90483 2.327 8.5755C2.327 8.30683 2.379 8.0815 2.483 7.8995C2.587 7.7175 2.74733 7.57883 2.964 7.4835C3.18933 7.38817 3.47533 7.3405 3.822 7.3405C4.16 7.3405 4.446 7.41417 4.68 7.5615C4.914 7.70017 5.11333 7.8865 5.278 8.1205C5.44267 8.34583 5.59 8.58417 5.72 8.8355ZM7.80102 15.5175L14.223 15.5175L14.223 14.4775L10.076 14.4775L12.975 11.5265C13.3303 11.1625 13.6207 10.7508 13.846 10.2915C14.0713 9.83217 14.184 9.3685 14.184 8.9005C14.184 8.62317 14.1277 8.33283 14.015 8.0295C13.9023 7.72617 13.729 7.4445 13.495 7.1845C13.261 6.91583 12.962 6.69917 12.598 6.5345C12.234 6.36117 11.8007 6.2745 11.298 6.2745C10.674 6.2745 10.1367 6.41317 9.68602 6.6905C9.24402 6.95917 8.90602 7.3405 8.67202 7.8345C8.43802 8.31983 8.32102 8.8875 8.32102 9.5375L9.42602 9.5375C9.42602 9.07817 9.49968 8.68383 9.64702 8.3545C9.79435 8.0165 10.0067 7.76083 10.284 7.5875C10.57 7.4055 10.908 7.3145 11.298 7.3145C11.5753 7.3145 11.8223 7.36217 12.039 7.4575C12.2557 7.55283 12.4377 7.6785 12.585 7.8345C12.741 7.9905 12.858 8.16383 12.936 8.3545C13.014 8.54517 13.053 8.74017 13.053 8.9395C13.053 9.18217 13.014 9.41617 12.936 9.6415C12.8667 9.85817 12.7583 10.0748 12.611 10.2915C12.4723 10.4995 12.3033 10.7118 12.104 10.9285L7.80102 15.5175ZM16.5674 10.9675C16.5674 10.4388 16.6194 9.9535 16.7234 9.5115C16.8274 9.06083 16.979 8.67517 17.1784 8.3545C17.3777 8.02517 17.616 7.77383 17.8934 7.6005C18.1794 7.4185 18.4957 7.3275 18.8424 7.3275C19.1977 7.3275 19.514 7.4185 19.7914 7.6005C20.0687 7.77383 20.3071 8.02517 20.5064 8.3545C20.7057 8.67517 20.8574 9.06083 20.9614 9.5115C21.0654 9.9535 21.1174 10.4388 21.1174 10.9675C21.1174 11.4962 21.0654 11.9858 20.9614 12.4365C20.8574 12.8785 20.7057 13.2642 20.5064 13.5935C20.3071 13.9142 20.0687 14.1655 19.7914 14.3475C19.514 14.5208 19.1977 14.6075 18.8424 14.6075C18.4957 14.6075 18.1794 14.5208 17.8934 14.3475C17.616 14.1655 17.3777 13.9142 17.1784 13.5935C16.979 13.2642 16.8274 12.8785 16.7234 12.4365C16.6194 11.9858 16.5674 11.4962 16.5674 10.9675ZM15.4624 10.9675C15.4624 11.8775 15.6054 12.6835 15.8914 13.3855C16.1774 14.0875 16.5717 14.6422 17.0744 15.0495C17.5857 15.4482 18.175 15.6475 18.8424 15.6475C19.5097 15.6475 20.0947 15.4482 20.5974 15.0495C21.1087 14.6422 21.5074 14.0875 21.7934 13.3855C22.0794 12.6835 22.2224 11.8775 22.2224 10.9675C22.2224 10.0575 22.0794 9.2515 21.7934 8.5495C21.5074 7.8475 21.1087 7.29717 20.5974 6.8985C20.0947 6.49117 19.5097 6.2875 18.8424 6.2875C18.175 6.2875 17.5857 6.49117 17.0744 6.8985C16.5717 7.29717 16.1774 7.8475 15.8914 8.5495C15.6054 9.2515 15.4624 10.0575 15.4624 10.9675ZM24.3623 10.9675C24.3623 10.4388 24.4143 9.9535 24.5183 9.5115C24.6223 9.06083 24.774 8.67517 24.9733 8.3545C25.1726 8.02517 25.411 7.77383 25.6883 7.6005C25.9743 7.4185 26.2906 7.3275 26.6373 7.3275C26.9926 7.3275 27.309 7.4185 27.5863 7.6005C27.8636 7.77383 28.102 8.02517 28.3013 8.3545C28.5006 8.67517 28.6523 9.06083 28.7563 9.5115C28.8603 9.9535 28.9123 10.4388 28.9123 10.9675C28.9123 11.4962 28.8603 11.9858 28.7563 12.4365C28.6523 12.8785 28.5006 13.2642 28.3013 13.5935C28.102 13.9142 27.8636 14.1655 27.5863 14.3475C27.309 14.5208 26.9926 14.6075 26.6373 14.6075C26.2906 14.6075 25.9743 14.5208 25.6883 14.3475C25.411 14.1655 25.1726 13.9142 24.9733 13.5935C24.774 13.2642 24.6223 12.8785 24.5183 12.4365C24.4143 11.9858 24.3623 11.4962 24.3623 10.9675ZM23.2573 10.9675C23.2573 11.8775 23.4003 12.6835 23.6863 13.3855C23.9723 14.0875 24.3666 14.6422 24.8693 15.0495C25.3806 15.4482 25.97 15.6475 26.6373 15.6475C27.3046 15.6475 27.8896 15.4482 28.3923 15.0495C28.9036 14.6422 29.3023 14.0875 29.5883 13.3855C29.8743 12.6835 30.0173 11.8775 30.0173 10.9675C30.0173 10.0575 29.8743 9.2515 29.5883 8.5495C29.3023 7.8475 28.9036 7.29717 28.3923 6.8985C27.8896 6.49117 27.3046 6.2875 26.6373 6.2875C25.97 6.2875 25.3806 6.49117 24.8693 6.8985C24.3666 7.29717 23.9723 7.8475 23.6863 8.5495C23.4003 9.2515 23.2573 10.0575 23.2573 10.9675ZM31.7672 14.9975C31.7672 15.1882 31.8366 15.3572 31.9752 15.5045C32.1226 15.6432 32.2916 15.7125 32.4822 15.7125C32.6816 15.7125 32.8506 15.6432 32.9892 15.5045C33.1279 15.3572 33.1972 15.1882 33.1972 14.9975C33.1972 14.7982 33.1279 14.6292 32.9892 14.4905C32.8506 14.3518 32.6816 14.2825 32.4822 14.2825C32.2916 14.2825 32.1226 14.3518 31.9752 14.4905C31.8366 14.6292 31.7672 14.7982 31.7672 14.9975ZM40.2147 9.4075C40.2147 9.8235 40.1237 10.1918 39.9417 10.5125C39.7684 10.8332 39.5257 11.0888 39.2137 11.2795C38.9104 11.4615 38.5637 11.5525 38.1737 11.5525C37.7837 11.5525 37.4327 11.4615 37.1207 11.2795C36.8174 11.0888 36.5747 10.8332 36.3927 10.5125C36.2194 10.1918 36.1327 9.8235 36.1327 9.4075C36.1327 8.9915 36.2194 8.6275 36.3927 8.3155C36.5747 7.99483 36.8174 7.7435 37.1207 7.5615C37.4327 7.3795 37.7837 7.2885 38.1737 7.2885C38.5637 7.2885 38.9104 7.3795 39.2137 7.5615C39.5257 7.7435 39.7684 7.99483 39.9417 8.3155C40.1237 8.6275 40.2147 8.9915 40.2147 9.4075ZM37.6277 15.5175L40.6957 11.2925C40.869 11.0498 41.0077 10.7682 41.1117 10.4475C41.2157 10.1268 41.2677 9.78017 41.2677 9.4075C41.2677 8.7835 41.129 8.2375 40.8517 7.7695C40.583 7.3015 40.2147 6.9375 39.7467 6.6775C39.2874 6.4175 38.763 6.2875 38.1737 6.2875C37.593 6.2875 37.0687 6.4175 36.6007 6.6775C36.1327 6.9375 35.76 7.3015 35.4827 7.7695C35.214 8.2375 35.0797 8.7835 35.0797 9.4075C35.0797 9.8235 35.149 10.2135 35.2877 10.5775C35.4264 10.9328 35.617 11.2448 35.8597 11.5135C36.111 11.7822 36.397 11.9902 36.7177 12.1375C37.047 12.2848 37.398 12.3585 37.7707 12.3585C38.0654 12.3585 38.3254 12.3238 38.5507 12.2545C38.7847 12.1852 38.9884 12.0422 39.1617 11.8255L39.0837 11.7605L36.2367 15.5175L37.6277 15.5175ZM47.7049 9.4075C47.7049 9.8235 47.6139 10.1918 47.4319 10.5125C47.2586 10.8332 47.0159 11.0888 46.7039 11.2795C46.4006 11.4615 46.0539 11.5525 45.6639 11.5525C45.2739 11.5525 44.9229 11.4615 44.6109 11.2795C44.3076 11.0888 44.0649 10.8332 43.8829 10.5125C43.7096 10.1918 43.6229 9.8235 43.6229 9.4075C43.6229 8.9915 43.7096 8.6275 43.8829 8.3155C44.0649 7.99483 44.3076 7.7435 44.6109 7.5615C44.9229 7.3795 45.2739 7.2885 45.6639 7.2885C46.0539 7.2885 46.4006 7.3795 46.7039 7.5615C47.0159 7.7435 47.2586 7.99483 47.4319 8.3155C47.6139 8.6275 47.7049 8.9915 47.7049 9.4075ZM45.1179 15.5175L48.1859 11.2925C48.3593 11.0498 48.4979 10.7682 48.6019 10.4475C48.7059 10.1268 48.7579 9.78017 48.7579 9.4075C48.7579 8.7835 48.6193 8.2375 48.3419 7.7695C48.0733 7.3015 47.7049 6.9375 47.2369 6.6775C46.7776 6.4175 46.2533 6.2875 45.6639 6.2875C45.0833 6.2875 44.5589 6.4175 44.0909 6.6775C43.6229 6.9375 43.2503 7.3015 42.9729 7.7695C42.7043 8.2375 42.5699 8.7835 42.5699 9.4075C42.5699 9.8235 42.6393 10.2135 42.7779 10.5775C42.9166 10.9328 43.1073 11.2448 43.3499 11.5135C43.6013 11.7822 43.8873 11.9902 44.2079 12.1375C44.5373 12.2848 44.8883 12.3585 45.2609 12.3585C45.5556 12.3585 45.8156 12.3238 46.0409 12.2545C46.2749 12.1852 46.4786 12.0422 46.6519 11.8255L46.5739 11.7605L43.7269 15.5175L45.1179 15.5175Z" fill="rgb(255,255,255)" fill-rule="nonzero" />
	<path id="$200.99 Total" d="M0.128 28.0615L3.072 28.0615L3.072 37.5175L4.976 37.5175L4.976 28.0615L7.936 28.0615L7.936 26.3175L0.128 26.3175L0.128 28.0615ZM7.01275 33.8375C7.01275 34.5842 7.18342 35.2508 7.52475 35.8375C7.87675 36.4135 8.35142 36.8668 8.94875 37.1975C9.54608 37.5175 10.2234 37.6775 10.9808 37.6775C11.7381 37.6775 12.4101 37.5175 12.9967 37.1975C13.5941 36.8668 14.0688 36.4135 14.4207 35.8375C14.7728 35.2508 14.9488 34.5842 14.9488 33.8375C14.9488 33.0802 14.7728 32.4135 14.4207 31.8375C14.0688 31.2615 13.5941 30.8135 12.9967 30.4935C12.4101 30.1628 11.7381 29.9975 10.9808 29.9975C10.2234 29.9975 9.54608 30.1628 8.94875 30.4935C8.35142 30.8135 7.87675 31.2615 7.52475 31.8375C7.18342 32.4135 7.01275 33.0802 7.01275 33.8375ZM8.78875 33.8375C8.78875 33.3788 8.88475 32.9735 9.07675 32.6215C9.26875 32.2695 9.53008 31.9975 9.86075 31.8055C10.1914 31.6135 10.5648 31.5175 10.9808 31.5175C11.3861 31.5175 11.7541 31.6135 12.0848 31.8055C12.4261 31.9975 12.6928 32.2695 12.8848 32.6215C13.0767 32.9735 13.1728 33.3788 13.1728 33.8375C13.1728 34.2962 13.0767 34.7015 12.8848 35.0535C12.6928 35.3948 12.4261 35.6668 12.0848 35.8695C11.7541 36.0615 11.3861 36.1575 10.9808 36.1575C10.5648 36.1575 10.1914 36.0615 9.86075 35.8695C9.53008 35.6668 9.26875 35.3948 9.07675 35.0535C8.88475 34.7015 8.78875 34.2962 8.78875 33.8375ZM15.5644 30.1575L15.5644 31.6775L19.7404 31.6775L19.7404 30.1575L15.5644 30.1575ZM16.7964 27.5975L16.7964 37.5175L18.5084 37.5175L18.5084 27.5975L16.7964 27.5975ZM22.0201 35.2295C22.0201 34.9948 22.0735 34.7975 22.1801 34.6375C22.2975 34.4775 22.4681 34.3548 22.6921 34.2695C22.9161 34.1735 23.2095 34.1255 23.5721 34.1255C23.9881 34.1255 24.3828 34.1788 24.7561 34.2855C25.1295 34.3922 25.4815 34.5628 25.8121 34.7975L25.8121 33.9175C25.7161 33.8002 25.5508 33.6722 25.3161 33.5335C25.0815 33.3842 24.7828 33.2562 24.4201 33.1495C24.0681 33.0428 23.6468 32.9895 23.1561 32.9895C22.2388 32.9895 21.5295 33.2028 21.0281 33.6295C20.5268 34.0455 20.2761 34.6108 20.2761 35.3255C20.2761 35.8268 20.3935 36.2535 20.6281 36.6055C20.8628 36.9575 21.1775 37.2242 21.5721 37.4055C21.9668 37.5868 22.3935 37.6775 22.8521 37.6775C23.2788 37.6775 23.6948 37.6028 24.1001 37.4535C24.5161 37.2935 24.8575 37.0588 25.1241 36.7495C25.4015 36.4295 25.5401 36.0348 25.5401 35.5655L25.2841 34.6055C25.2841 34.9682 25.1935 35.2882 25.0121 35.5655C24.8415 35.8322 24.6121 36.0348 24.3241 36.1735C24.0468 36.3122 23.7375 36.3815 23.3961 36.3815C23.1295 36.3815 22.8895 36.3388 22.6761 36.2535C22.4735 36.1682 22.3135 36.0402 22.1961 35.8695C22.0788 35.6882 22.0201 35.4748 22.0201 35.2295ZM21.4761 32.0775C21.5828 32.0028 21.7428 31.9122 21.9561 31.8055C22.1801 31.6882 22.4415 31.5922 22.7401 31.5175C23.0495 31.4322 23.3748 31.3895 23.7161 31.3895C23.9401 31.3895 24.1481 31.4108 24.3401 31.4535C24.5321 31.4962 24.6975 31.5655 24.8361 31.6615C24.9748 31.7575 25.0815 31.8802 25.1561 32.0295C25.2415 32.1788 25.2841 32.3708 25.2841 32.6055L25.2841 37.5175L26.9801 37.5175L26.9801 32.2695C26.9801 31.7788 26.8468 31.3682 26.5801 31.0375C26.3135 30.6962 25.9455 30.4348 25.4761 30.2535C25.0175 30.0722 24.4841 29.9815 23.8761 29.9815C23.1935 29.9815 22.5855 30.0775 22.0521 30.2695C21.5295 30.4615 21.1028 30.6588 20.7721 30.8615L21.4761 32.0775ZM28.9946 25.0375L28.9946 37.5175L30.7226 37.5175L30.7226 25.0375L28.9946 25.0375Z" fill="rgb(255,255,255)" fill-rule="nonzero" />
	<path id="$200.99 Total" d="M0.128 28.0615L3.072 28.0615L3.072 37.5175L4.976 37.5175L4.976 28.0615L7.936 28.0615L7.936 26.3175L0.128 26.3175L0.128 28.0615ZM7.01275 33.8375C7.01275 34.5842 7.18342 35.2508 7.52475 35.8375C7.87675 36.4135 8.35142 36.8668 8.94875 37.1975C9.54608 37.5175 10.2234 37.6775 10.9808 37.6775C11.7381 37.6775 12.4101 37.5175 12.9967 37.1975C13.5941 36.8668 14.0688 36.4135 14.4207 35.8375C14.7728 35.2508 14.9488 34.5842 14.9488 33.8375C14.9488 33.0802 14.7728 32.4135 14.4207 31.8375C14.0688 31.2615 13.5941 30.8135 12.9967 30.4935C12.4101 30.1628 11.7381 29.9975 10.9808 29.9975C10.2234 29.9975 9.54608 30.1628 8.94875 30.4935C8.35142 30.8135 7.87675 31.2615 7.52475 31.8375C7.18342 32.4135 7.01275 33.0802 7.01275 33.8375ZM8.78875 33.8375C8.78875 33.3788 8.88475 32.9735 9.07675 32.6215C9.26875 32.2695 9.53008 31.9975 9.86075 31.8055C10.1914 31.6135 10.5648 31.5175 10.9808 31.5175C11.3861 31.5175 11.7541 31.6135 12.0848 31.8055C12.4261 31.9975 12.6928 32.2695 12.8848 32.6215C13.0767 32.9735 13.1728 33.3788 13.1728 33.8375C13.1728 34.2962 13.0767 34.7015 12.8848 35.0535C12.6928 35.3948 12.4261 35.6668 12.0848 35.8695C11.7541 36.0615 11.3861 36.1575 10.9808 36.1575C10.5648 36.1575 10.1914 36.0615 9.86075 35.8695C9.53008 35.6668 9.26875 35.3948 9.07675 35.0535C8.88475 34.7015 8.78875 34.2962 8.78875 33.8375ZM15.5644 30.1575L15.5644 31.6775L19.7404 31.6775L19.7404 30.1575L15.5644 30.1575ZM16.7964 27.5975L16.7964 37.5175L18.5084 37.5175L18.5084 27.5975L16.7964 27.5975ZM22.0201 35.2295C22.0201 34.9948 22.0735 34.7975 22.1801 34.6375C22.2975 34.4775 22.4681 34.3548 22.6921 34.2695C22.9161 34.1735 23.2095 34.1255 23.5721 34.1255C23.9881 34.1255 24.3828 34.1788 24.7561 34.2855C25.1295 34.3922 25.4815 34.5628 25.8121 34.7975L25.8121 33.9175C25.7161 33.8002 25.5508 33.6722 25.3161 33.5335C25.0815 33.3842 24.7828 33.2562 24.4201 33.1495C24.0681 33.0428 23.6468 32.9895 23.1561 32.9895C22.2388 32.9895 21.5295 33.2028 21.0281 33.6295C20.5268 34.0455 20.2761 34.6108 20.2761 35.3255C20.2761 35.8268 20.3935 36.2535 20.6281 36.6055C20.8628 36.9575 21.1775 37.2242 21.5721 37.4055C21.9668 37.5868 22.3935 37.6775 22.8521 37.6775C23.2788 37.6775 23.6948 37.6028 24.1001 37.4535C24.5161 37.2935 24.8575 37.0588 25.1241 36.7495C25.4015 36.4295 25.5401 36.0348 25.5401 35.5655L25.2841 34.6055C25.2841 34.9682 25.1935 35.2882 25.0121 35.5655C24.8415 35.8322 24.6121 36.0348 24.3241 36.1735C24.0468 36.3122 23.7375 36.3815 23.3961 36.3815C23.1295 36.3815 22.8895 36.3388 22.6761 36.2535C22.4735 36.1682 22.3135 36.0402 22.1961 35.8695C22.0788 35.6882 22.0201 35.4748 22.0201 35.2295ZM21.4761 32.0775C21.5828 32.0028 21.7428 31.9122 21.9561 31.8055C22.1801 31.6882 22.4415 31.5922 22.7401 31.5175C23.0495 31.4322 23.3748 31.3895 23.7161 31.3895C23.9401 31.3895 24.1481 31.4108 24.3401 31.4535C24.5321 31.4962 24.6975 31.5655 24.8361 31.6615C24.9748 31.7575 25.0815 31.8802 25.1561 32.0295C25.2415 32.1788 25.2841 32.3708 25.2841 32.6055L25.2841 37.5175L26.9801 37.5175L26.9801 32.2695C26.9801 31.7788 26.8468 31.3682 26.5801 31.0375C26.3135 30.6962 25.9455 30.4348 25.4761 30.2535C25.0175 30.0722 24.4841 29.9815 23.8761 29.9815C23.1935 29.9815 22.5855 30.0775 22.0521 30.2695C21.5295 30.4615 21.1028 30.6588 20.7721 30.8615L21.4761 32.0775ZM28.9946 25.0375L28.9946 37.5175L30.7226 37.5175L30.7226 25.0375L28.9946 25.0375Z" fill="rgb(255,255,255)" fill-rule="nonzero" />
</svg>
