<svg viewBox="0 0 21.2306 20" xmlns="http://www.w3.org/2000/svg" xmlns:xlink="http://www.w3.org/1999/xlink" width="21.230591" height="20.000000" fill="none">
	<rect id="shopping-cart 1" width="21.230600" height="20.000000" x="0.000000" y="0.000000" fill="rgb(255,255,255)" fill-opacity="0" />
	<g id="Group">
		<path id="Vector" d="M15.923 17.4997C15.923 16.5792 16.715 15.833 17.6922 15.833C18.6693 15.833 19.4614 16.5792 19.4614 17.4997C19.4614 18.4202 18.6693 19.1663 17.6922 19.1663C16.715 19.1663 15.923 18.4202 15.923 17.4997Z" fill="rgb(255,255,255)" fill-rule="evenodd" />
		<path id="Vector" d="M6.19226 17.4997C6.19226 16.5792 6.98437 15.833 7.96148 15.833C8.93862 15.833 9.7307 16.5792 9.7307 17.4997C9.7307 18.4202 8.93862 19.1663 7.96148 19.1663C6.98437 19.1663 6.19226 18.4202 6.19226 17.4997Z" fill="rgb(255,255,255)" fill-rule="evenodd" />
		<path id="Vector" d="M1.57138e-15 0.833333C1.57138e-15 0.373096 0.396052 0 0.884608 0L4.42304 0C4.84467 0 5.2077 0.280321 5.29044 0.669786L6.03341 4.16667L20.346 4.16667C20.6096 4.16667 20.8595 4.27744 21.0276 4.4688C21.1957 4.66015 21.2643 4.91215 21.2149 5.15611L19.7983 12.154C19.677 12.7295 19.3446 13.2465 18.8594 13.6144C18.3767 13.9805 17.7732 14.1758 17.1538 14.1667L8.57065 14.1667C7.9512 14.1758 7.34773 13.9805 6.86498 13.6144C6.38002 13.2466 6.04775 12.7299 5.92628 12.1547L4.44851 5.19933C4.44251 5.17632 4.43753 5.15294 4.43361 5.12923L3.69795 1.66667L0.884608 1.66667C0.396052 1.66667 0 1.29357 0 0.833333L1.57138e-15 0.833333ZM6.38752 5.83333L7.66145 11.8293C7.7019 12.0212 7.81268 12.1935 7.9744 12.3161C8.13612 12.4387 8.33849 12.5039 8.54606 12.5002L8.56301 12.5L17.1614 12.5L17.1784 12.5002C17.3859 12.5039 17.5883 12.4387 17.75 12.3161C17.911 12.194 18.0215 12.0227 18.0624 11.832L19.2768 5.83333L6.38752 5.83333Z" fill="rgb(255,255,255)" fill-rule="evenodd" />
	</g>
</svg>
