<svg viewBox="0 0 61.9528 43" xmlns="http://www.w3.org/2000/svg" xmlns:xlink="http://www.w3.org/1999/xlink" width="61.952759" height="43.000000" fill="none" customFrame="#000000">
	<path id="Sign In Account" d="M1.378 12.7615L0.494 13.3595C0.693333 13.7582 0.949 14.1352 1.261 14.4905C1.58167 14.8372 1.95 15.1188 2.366 15.3355C2.79067 15.5435 3.25 15.6475 3.744 15.6475C4.108 15.6475 4.45467 15.5868 4.784 15.4655C5.122 15.3442 5.421 15.1708 5.681 14.9455C5.94967 14.7202 6.15767 14.4472 6.305 14.1265C6.461 13.8058 6.539 13.4462 6.539 13.0475C6.539 12.6315 6.46533 12.2762 6.318 11.9815C6.17067 11.6782 5.98 11.4225 5.746 11.2145C5.52067 10.9978 5.27367 10.8202 5.005 10.6815C4.73633 10.5428 4.48067 10.4302 4.238 10.3435C3.70933 10.1615 3.289 9.9795 2.977 9.7975C2.67367 9.60683 2.457 9.4075 2.327 9.1995C2.197 8.98283 2.132 8.74883 2.132 8.4975C2.132 8.20283 2.24467 7.9385 2.47 7.7045C2.69533 7.46183 3.055 7.3405 3.549 7.3405C3.90433 7.3405 4.20333 7.40983 4.446 7.5485C4.69733 7.68717 4.90967 7.86483 5.083 8.0815C5.25633 8.29817 5.39933 8.51917 5.512 8.7445L6.461 8.1985C6.31367 7.87783 6.11 7.5745 5.85 7.2885C5.59 6.99383 5.27367 6.7555 4.901 6.5735C4.537 6.38283 4.108 6.2875 3.614 6.2875C3.10267 6.2875 2.64767 6.3915 2.249 6.5995C1.85033 6.79883 1.53833 7.07617 1.313 7.4315C1.08767 7.78683 0.975 8.18983 0.975 8.6405C0.975 9.0565 1.053 9.4075 1.209 9.6935C1.37367 9.9795 1.58167 10.2222 1.833 10.4215C2.08433 10.6122 2.34867 10.7725 2.626 10.9025C2.90333 11.0238 3.15467 11.1235 3.38 11.2015C3.72667 11.3228 4.05167 11.4615 4.355 11.6175C4.667 11.7648 4.91833 11.9598 5.109 12.2025C5.29967 12.4452 5.395 12.7702 5.395 13.1775C5.395 13.5935 5.24767 13.9358 4.953 14.2045C4.65833 14.4732 4.26833 14.6075 3.783 14.6075C3.419 14.6075 3.094 14.5295 2.808 14.3735C2.522 14.2175 2.262 14.0008 2.028 13.7235C1.80267 13.4462 1.586 13.1255 1.378 12.7615ZM8.09707 7.0675C8.09707 7.25817 8.1664 7.42717 8.30507 7.5745C8.4524 7.71317 8.6214 7.7825 8.81207 7.7825C9.0114 7.7825 9.1804 7.71317 9.31907 7.5745C9.45774 7.42717 9.52707 7.25817 9.52707 7.0675C9.52707 6.86817 9.45774 6.69917 9.31907 6.5605C9.1804 6.42183 9.0114 6.3525 8.81207 6.3525C8.6214 6.3525 8.4524 6.42183 8.30507 6.5605C8.1664 6.69917 8.09707 6.86817 8.09707 7.0675ZM8.29207 9.5375L8.29207 15.5175L9.33207 15.5175L9.33207 9.5375L8.29207 9.5375ZM11.071 15.9075C11.071 16.4188 11.1967 16.8695 11.448 17.2595C11.6994 17.6582 12.046 17.9658 12.488 18.1825C12.9387 18.3992 13.4544 18.5075 14.035 18.5075C14.5377 18.5075 15.0144 18.3905 15.465 18.1565C15.9157 17.9225 16.284 17.5715 16.57 17.1035C16.856 16.6442 16.999 16.0722 16.999 15.3875L16.999 9.5375L15.959 9.5375L15.959 15.3875C15.959 15.8902 15.8594 16.2975 15.66 16.6095C15.4694 16.9302 15.2267 17.1642 14.932 17.3115C14.6374 17.4588 14.3384 17.5325 14.035 17.5325C13.645 17.5325 13.307 17.4545 13.021 17.2985C12.735 17.1512 12.514 16.9518 12.358 16.7005C12.202 16.4578 12.124 16.1935 12.124 15.9075L11.071 15.9075ZM10.954 12.5275C10.954 13.1688 11.0884 13.7235 11.357 14.1915C11.6257 14.6595 11.9854 15.0192 12.436 15.2705C12.8867 15.5218 13.3807 15.6475 13.918 15.6475C14.4207 15.6475 14.8584 15.5218 15.231 15.2705C15.6037 15.0192 15.894 14.6595 16.102 14.1915C16.3187 13.7235 16.427 13.1688 16.427 12.5275C16.427 11.8775 16.3187 11.3228 16.102 10.8635C15.894 10.3955 15.6037 10.0358 15.231 9.7845C14.8584 9.53317 14.4207 9.4075 13.918 9.4075C13.3807 9.4075 12.8867 9.53317 12.436 9.7845C11.9854 10.0358 11.6257 10.3955 11.357 10.8635C11.0884 11.3228 10.954 11.8775 10.954 12.5275ZM12.007 12.5275C12.007 12.0682 12.098 11.6782 12.28 11.3575C12.4707 11.0368 12.722 10.7942 13.034 10.6295C13.346 10.4648 13.684 10.3825 14.048 10.3825C14.2734 10.3825 14.4987 10.4302 14.724 10.5255C14.9494 10.6208 15.153 10.7595 15.335 10.9415C15.5257 11.1235 15.6774 11.3488 15.79 11.6175C15.9027 11.8775 15.959 12.1808 15.959 12.5275C15.959 12.9868 15.8637 13.3768 15.673 13.6975C15.4824 14.0182 15.2397 14.2608 14.945 14.4255C14.6504 14.5902 14.3514 14.6725 14.048 14.6725C13.684 14.6725 13.346 14.5902 13.034 14.4255C12.722 14.2608 12.4707 14.0182 12.28 13.6975C12.098 13.3768 12.007 12.9868 12.007 12.5275ZM22.7231 11.8775L22.7231 15.5175L23.7631 15.5175L23.7631 11.7475C23.7631 11.0282 23.5768 10.4605 23.2041 10.0445C22.8401 9.61983 22.3418 9.4075 21.7091 9.4075C21.3191 9.4075 20.9724 9.49417 20.6691 9.6675C20.3744 9.84083 20.1274 10.1095 19.9281 10.4735L19.9281 9.5375L18.8881 9.5375L18.8881 15.5175L19.9281 15.5175L19.9281 11.8775C19.9281 11.5828 19.9888 11.3228 20.1101 11.0975C20.2401 10.8722 20.4178 10.6988 20.6431 10.5775C20.8771 10.4475 21.1458 10.3825 21.4491 10.3825C21.8651 10.3825 22.1814 10.5082 22.3981 10.7595C22.6148 11.0108 22.7231 11.3835 22.7231 11.8775ZM29.6806 6.4175L29.6806 15.5175L30.7856 15.5175L30.7856 6.4175L29.6806 6.4175ZM36.6371 11.8775L36.6371 15.5175L37.6771 15.5175L37.6771 11.7475C37.6771 11.0282 37.4908 10.4605 37.1181 10.0445C36.7542 9.61983 36.2558 9.4075 35.6231 9.4075C35.2332 9.4075 34.8865 9.49417 34.5831 9.6675C34.2885 9.84083 34.0415 10.1095 33.8421 10.4735L33.8421 9.5375L32.8021 9.5375L32.8021 15.5175L33.8421 15.5175L33.8421 11.8775C33.8421 11.5828 33.9028 11.3228 34.0241 11.0975C34.1541 10.8722 34.3318 10.6988 34.5571 10.5775C34.7911 10.4475 35.0598 10.3825 35.3631 10.3825C35.7791 10.3825 36.0955 10.5082 36.3121 10.7595C36.5288 11.0108 36.6371 11.3835 36.6371 11.8775Z" fill="rgb(255,255,255)" fill-rule="nonzero" />
	<path id="Sign In Account" d="M2.592 34.6375L8.512 34.6375L8.144 33.0375L2.944 33.0375L2.592 34.6375ZM5.52 29.4855L7.296 33.6455L7.344 34.1095L8.864 37.5175L10.992 37.5175L5.52 25.6935L0.048 37.5175L2.176 37.5175L3.728 34.0135L3.76 33.5975L5.52 29.4855ZM13.3029 33.8375C13.3029 33.3788 13.4042 32.9735 13.6069 32.6215C13.8095 32.2695 14.0815 31.9922 14.4229 31.7895C14.7749 31.5868 15.1642 31.4855 15.5909 31.4855C15.9322 31.4855 16.2629 31.5388 16.5829 31.6455C16.9029 31.7522 17.1855 31.9015 17.4309 32.0935C17.6869 32.2748 17.8735 32.4882 17.9909 32.7335L17.9909 30.8295C17.7349 30.5735 17.3882 30.3708 16.9509 30.2215C16.5135 30.0722 16.0335 29.9975 15.5109 29.9975C14.7535 29.9975 14.0709 30.1628 13.4629 30.4935C12.8655 30.8135 12.3909 31.2615 12.0389 31.8375C11.6975 32.4135 11.5269 33.0802 11.5269 33.8375C11.5269 34.5842 11.6975 35.2508 12.0389 35.8375C12.3909 36.4135 12.8655 36.8668 13.4629 37.1975C14.0709 37.5175 14.7535 37.6775 15.5109 37.6775C16.0335 37.6775 16.5135 37.6028 16.9509 37.4535C17.3882 37.3042 17.7349 37.1015 17.9909 36.8455L17.9909 34.9415C17.8735 35.1762 17.6922 35.3895 17.4469 35.5815C17.2015 35.7735 16.9189 35.9228 16.5989 36.0295C16.2789 36.1362 15.9429 36.1895 15.5909 36.1895C15.1642 36.1895 14.7749 36.0882 14.4229 35.8855C14.0815 35.6828 13.8095 35.4108 13.6069 35.0695C13.4042 34.7175 13.3029 34.3068 13.3029 33.8375ZM21.0529 33.8375C21.0529 33.3788 21.1542 32.9735 21.3569 32.6215C21.5595 32.2695 21.8315 31.9922 22.1729 31.7895C22.5249 31.5868 22.9142 31.4855 23.3409 31.4855C23.6822 31.4855 24.0129 31.5388 24.3329 31.6455C24.6529 31.7522 24.9355 31.9015 25.1809 32.0935C25.4369 32.2748 25.6235 32.4882 25.7409 32.7335L25.7409 30.8295C25.4849 30.5735 25.1382 30.3708 24.7009 30.2215C24.2635 30.0722 23.7835 29.9975 23.2609 29.9975C22.5035 29.9975 21.8209 30.1628 21.2129 30.4935C20.6155 30.8135 20.1409 31.2615 19.7889 31.8375C19.4475 32.4135 19.2769 33.0802 19.2769 33.8375C19.2769 34.5842 19.4475 35.2508 19.7889 35.8375C20.1409 36.4135 20.6155 36.8668 21.2129 37.1975C21.8209 37.5175 22.5035 37.6775 23.2609 37.6775C23.7835 37.6775 24.2635 37.6028 24.7009 37.4535C25.1382 37.3042 25.4849 37.1015 25.7409 36.8455L25.7409 34.9415C25.6235 35.1762 25.4422 35.3895 25.1969 35.5815C24.9515 35.7735 24.6689 35.9228 24.3489 36.0295C24.0289 36.1362 23.6929 36.1895 23.3409 36.1895C22.9142 36.1895 22.5249 36.0882 22.1729 35.8855C21.8315 35.6828 21.5595 35.4108 21.3569 35.0695C21.1542 34.7175 21.0529 34.3068 21.0529 33.8375ZM27.0909 33.8375C27.0909 34.5842 27.2615 35.2508 27.6029 35.8375C27.9549 36.4135 28.4295 36.8668 29.0269 37.1975C29.6242 37.5175 30.3015 37.6775 31.0589 37.6775C31.8162 37.6775 32.4882 37.5175 33.0749 37.1975C33.6722 36.8668 34.1469 36.4135 34.4989 35.8375C34.8509 35.2508 35.0269 34.5842 35.0269 33.8375C35.0269 33.0802 34.8509 32.4135 34.4989 31.8375C34.1469 31.2615 33.6722 30.8135 33.0749 30.4935C32.4882 30.1628 31.8162 29.9975 31.0589 29.9975C30.3015 29.9975 29.6242 30.1628 29.0269 30.4935C28.4295 30.8135 27.9549 31.2615 27.6029 31.8375C27.2615 32.4135 27.0909 33.0802 27.0909 33.8375ZM28.8669 33.8375C28.8669 33.3788 28.9629 32.9735 29.1549 32.6215C29.3469 32.2695 29.6082 31.9975 29.9389 31.8055C30.2695 31.6135 30.6429 31.5175 31.0589 31.5175C31.4642 31.5175 31.8322 31.6135 32.1629 31.8055C32.5042 31.9975 32.7709 32.2695 32.9629 32.6215C33.1549 32.9735 33.2509 33.3788 33.2509 33.8375C33.2509 34.2962 33.1549 34.7015 32.9629 35.0535C32.7709 35.3948 32.5042 35.6668 32.1629 35.8695C31.8322 36.0615 31.4642 36.1575 31.0589 36.1575C30.6429 36.1575 30.2695 36.0615 29.9389 35.8695C29.6082 35.6668 29.3469 35.3948 29.1549 35.0535C28.9629 34.7015 28.8669 34.2962 28.8669 33.8375ZM38.4425 34.6375L38.4425 30.1575L36.6665 30.1575L36.6665 34.8295C36.6665 35.7042 36.8852 36.3975 37.3225 36.9095C37.7705 37.4215 38.4052 37.6775 39.2265 37.6775C39.7385 37.6775 40.1758 37.5708 40.5385 37.3575C40.9118 37.1335 41.2158 36.8082 41.4505 36.3815L41.4505 37.5175L43.1785 37.5175L43.1785 30.1575L41.4505 30.1575L41.4505 34.6375C41.4505 34.9682 41.3812 35.2615 41.2425 35.5175C41.1038 35.7628 40.9118 35.9548 40.6665 36.0935C40.4212 36.2215 40.1332 36.2855 39.8025 36.2855C39.3438 36.2855 39.0025 36.1415 38.7785 35.8535C38.5545 35.5655 38.4425 35.1602 38.4425 34.6375ZM50.1213 33.0375L50.1213 37.5175L51.8973 37.5175L51.8973 32.8455C51.8973 31.9602 51.6786 31.2668 51.2412 30.7655C50.8039 30.2535 50.1693 29.9975 49.3372 29.9975C48.8252 29.9975 48.3826 30.1042 48.0093 30.3175C47.6466 30.5308 47.3479 30.8562 47.1133 31.2935L47.1133 30.1575L45.3853 30.1575L45.3853 37.5175L47.1133 37.5175L47.1133 33.0375C47.1133 32.7068 47.1826 32.4188 47.3213 32.1735C47.4599 31.9175 47.6519 31.7255 47.8973 31.5975C48.1426 31.4588 48.4253 31.3895 48.7453 31.3895C49.2146 31.3895 49.5612 31.5282 49.7853 31.8055C50.0093 32.0828 50.1213 32.4935 50.1213 33.0375ZM53.08 30.1575L53.08 31.6775L57.256 31.6775L57.256 30.1575L53.08 30.1575ZM54.312 27.5975L54.312 37.5175L56.024 37.5175L56.024 27.5975L54.312 27.5975Z" fill="rgb(255,255,255)" fill-rule="nonzero" />
	<path id="Sign In Account" d="M2.592 34.6375L8.512 34.6375L8.144 33.0375L2.944 33.0375L2.592 34.6375ZM5.52 29.4855L7.296 33.6455L7.344 34.1095L8.864 37.5175L10.992 37.5175L5.52 25.6935L0.048 37.5175L2.176 37.5175L3.728 34.0135L3.76 33.5975L5.52 29.4855ZM13.3029 33.8375C13.3029 33.3788 13.4042 32.9735 13.6069 32.6215C13.8095 32.2695 14.0815 31.9922 14.4229 31.7895C14.7749 31.5868 15.1642 31.4855 15.5909 31.4855C15.9322 31.4855 16.2629 31.5388 16.5829 31.6455C16.9029 31.7522 17.1855 31.9015 17.4309 32.0935C17.6869 32.2748 17.8735 32.4882 17.9909 32.7335L17.9909 30.8295C17.7349 30.5735 17.3882 30.3708 16.9509 30.2215C16.5135 30.0722 16.0335 29.9975 15.5109 29.9975C14.7535 29.9975 14.0709 30.1628 13.4629 30.4935C12.8655 30.8135 12.3909 31.2615 12.0389 31.8375C11.6975 32.4135 11.5269 33.0802 11.5269 33.8375C11.5269 34.5842 11.6975 35.2508 12.0389 35.8375C12.3909 36.4135 12.8655 36.8668 13.4629 37.1975C14.0709 37.5175 14.7535 37.6775 15.5109 37.6775C16.0335 37.6775 16.5135 37.6028 16.9509 37.4535C17.3882 37.3042 17.7349 37.1015 17.9909 36.8455L17.9909 34.9415C17.8735 35.1762 17.6922 35.3895 17.4469 35.5815C17.2015 35.7735 16.9189 35.9228 16.5989 36.0295C16.2789 36.1362 15.9429 36.1895 15.5909 36.1895C15.1642 36.1895 14.7749 36.0882 14.4229 35.8855C14.0815 35.6828 13.8095 35.4108 13.6069 35.0695C13.4042 34.7175 13.3029 34.3068 13.3029 33.8375ZM21.0529 33.8375C21.0529 33.3788 21.1542 32.9735 21.3569 32.6215C21.5595 32.2695 21.8315 31.9922 22.1729 31.7895C22.5249 31.5868 22.9142 31.4855 23.3409 31.4855C23.6822 31.4855 24.0129 31.5388 24.3329 31.6455C24.6529 31.7522 24.9355 31.9015 25.1809 32.0935C25.4369 32.2748 25.6235 32.4882 25.7409 32.7335L25.7409 30.8295C25.4849 30.5735 25.1382 30.3708 24.7009 30.2215C24.2635 30.0722 23.7835 29.9975 23.2609 29.9975C22.5035 29.9975 21.8209 30.1628 21.2129 30.4935C20.6155 30.8135 20.1409 31.2615 19.7889 31.8375C19.4475 32.4135 19.2769 33.0802 19.2769 33.8375C19.2769 34.5842 19.4475 35.2508 19.7889 35.8375C20.1409 36.4135 20.6155 36.8668 21.2129 37.1975C21.8209 37.5175 22.5035 37.6775 23.2609 37.6775C23.7835 37.6775 24.2635 37.6028 24.7009 37.4535C25.1382 37.3042 25.4849 37.1015 25.7409 36.8455L25.7409 34.9415C25.6235 35.1762 25.4422 35.3895 25.1969 35.5815C24.9515 35.7735 24.6689 35.9228 24.3489 36.0295C24.0289 36.1362 23.6929 36.1895 23.3409 36.1895C22.9142 36.1895 22.5249 36.0882 22.1729 35.8855C21.8315 35.6828 21.5595 35.4108 21.3569 35.0695C21.1542 34.7175 21.0529 34.3068 21.0529 33.8375ZM27.0909 33.8375C27.0909 34.5842 27.2615 35.2508 27.6029 35.8375C27.9549 36.4135 28.4295 36.8668 29.0269 37.1975C29.6242 37.5175 30.3015 37.6775 31.0589 37.6775C31.8162 37.6775 32.4882 37.5175 33.0749 37.1975C33.6722 36.8668 34.1469 36.4135 34.4989 35.8375C34.8509 35.2508 35.0269 34.5842 35.0269 33.8375C35.0269 33.0802 34.8509 32.4135 34.4989 31.8375C34.1469 31.2615 33.6722 30.8135 33.0749 30.4935C32.4882 30.1628 31.8162 29.9975 31.0589 29.9975C30.3015 29.9975 29.6242 30.1628 29.0269 30.4935C28.4295 30.8135 27.9549 31.2615 27.6029 31.8375C27.2615 32.4135 27.0909 33.0802 27.0909 33.8375ZM28.8669 33.8375C28.8669 33.3788 28.9629 32.9735 29.1549 32.6215C29.3469 32.2695 29.6082 31.9975 29.9389 31.8055C30.2695 31.6135 30.6429 31.5175 31.0589 31.5175C31.4642 31.5175 31.8322 31.6135 32.1629 31.8055C32.5042 31.9975 32.7709 32.2695 32.9629 32.6215C33.1549 32.9735 33.2509 33.3788 33.2509 33.8375C33.2509 34.2962 33.1549 34.7015 32.9629 35.0535C32.7709 35.3948 32.5042 35.6668 32.1629 35.8695C31.8322 36.0615 31.4642 36.1575 31.0589 36.1575C30.6429 36.1575 30.2695 36.0615 29.9389 35.8695C29.6082 35.6668 29.3469 35.3948 29.1549 35.0535C28.9629 34.7015 28.8669 34.2962 28.8669 33.8375ZM38.4425 34.6375L38.4425 30.1575L36.6665 30.1575L36.6665 34.8295C36.6665 35.7042 36.8852 36.3975 37.3225 36.9095C37.7705 37.4215 38.4052 37.6775 39.2265 37.6775C39.7385 37.6775 40.1758 37.5708 40.5385 37.3575C40.9118 37.1335 41.2158 36.8082 41.4505 36.3815L41.4505 37.5175L43.1785 37.5175L43.1785 30.1575L41.4505 30.1575L41.4505 34.6375C41.4505 34.9682 41.3812 35.2615 41.2425 35.5175C41.1038 35.7628 40.9118 35.9548 40.6665 36.0935C40.4212 36.2215 40.1332 36.2855 39.8025 36.2855C39.3438 36.2855 39.0025 36.1415 38.7785 35.8535C38.5545 35.5655 38.4425 35.1602 38.4425 34.6375ZM50.1213 33.0375L50.1213 37.5175L51.8973 37.5175L51.8973 32.8455C51.8973 31.9602 51.6786 31.2668 51.2412 30.7655C50.8039 30.2535 50.1693 29.9975 49.3372 29.9975C48.8252 29.9975 48.3826 30.1042 48.0093 30.3175C47.6466 30.5308 47.3479 30.8562 47.1133 31.2935L47.1133 30.1575L45.3853 30.1575L45.3853 37.5175L47.1133 37.5175L47.1133 33.0375C47.1133 32.7068 47.1826 32.4188 47.3213 32.1735C47.4599 31.9175 47.6519 31.7255 47.8973 31.5975C48.1426 31.4588 48.4253 31.3895 48.7453 31.3895C49.2146 31.3895 49.5612 31.5282 49.7853 31.8055C50.0093 32.0828 50.1213 32.4935 50.1213 33.0375ZM53.08 30.1575L53.08 31.6775L57.256 31.6775L57.256 30.1575L53.08 30.1575ZM54.312 27.5975L54.312 37.5175L56.024 37.5175L56.024 27.5975L54.312 27.5975Z" fill="rgb(255,255,255)" fill-rule="nonzero" />
</svg>
